<svg width="333px" height="316px" viewBox="0 0 333 316" version="1.1" xmlns="http://www.w3.org/2000/svg" xmlns:xlink="http://www.w3.org/1999/xlink">

  <g id="db" transform="translate(-54.000000, -129.000000)" fill="#9D7456">
    <g id="Group" transform="translate(211.000000, 292.500000) rotate(-30.000000) translate(-211.000000, -292.500000) translate(50.000000, 149.000000)">
      <path d="M184,259.646686 C186.02423,259.745483 187.977315,259.792513 189.847726,259.792513 C231.409193,259.792513 289.276649,237.828088 289.276649,197.076024 C289.276649,151.28783 249.314453,151.28783 249.314453,143.943193 C249.314453,136.598556 289.276649,130.109375 289.276649,89.6235926 C289.276649,52.4518602 247.670628,24.4069395 189.847726,24.4069395 C187.903386,24.4069395 185.953282,24.4586752 184,24.5614679 C182.046718,24.6642606 182.057299,0.18435238 184,0.110717561 C185.942701,0.0370827424 187.892253,2.86678552e-14 189.847726,2.84217094e-14 C258.591975,2.84217094e-14 322,34.6321242 322,94.7940997 C322,126.406573 299.219853,136.885455 299.219853,143.821949 C299.219853,150.758444 322,170.702936 322,198.741788 C322,249.203227 258.591975,287 189.847726,287 C187.88081,287 185.931524,286.97392 184,286.922066 C182.068476,286.870211 181.97577,259.547889 184,259.646686 Z" id="Path"></path>
      <path d="M205,94 C205,116.365234 229.79107,120.271888 240.665357,121.896339 C251.212592,123.472411 254.379831,123.384726 255.822751,121.476809 C257.419094,119.36593 257.379428,65.5224274 255.780092,63.4119267 C254.43222,61.6336484 249.22259,61.5372699 239.470907,63.1106966 C229.558317,64.7105801 205,71.6347656 205,94 Z" id="Fill-2" transform="translate(231.000000, 92.500000) rotate(-180.000000) translate(-231.000000, -92.500000) "></path>
      <path d="M205,193 C205,215.365234 229.79107,222.271888 240.665357,223.896339 C251.212592,225.472411 254.379831,225.384726 255.822751,223.476809 C257.419094,221.36593 257.379428,167.522427 255.780092,165.411927 C254.43222,163.633648 249.22259,163.53727 239.470907,165.110697 C229.558317,166.71058 205,170.634766 205,193 Z" id="Fill-2" transform="translate(231.000000, 194.500000) rotate(-180.000000) translate(-231.000000, -194.500000) "></path>
      <path d="M0,143.821949 C0,61.4179408 73.0777501,2.95877181 159.539741,5.1159077e-13 C160.987106,0.180624553 161,3.36353962 161,4.98632813 L161,283.310547 C161,284.509778 160.370099,286.932192 158.638232,287 C56.305139,284.518199 0,226.568148 0,143.821949 Z M43,143.577421 C43,198.403002 84.5387993,218.01053 100.709472,222.767849 C116.393801,227.38349 121.103663,227.126696 123.249365,221.539225 C125.623216,215.357367 125.564231,72.3156804 123.185929,66.1349282 C121.181567,60.9271133 113.434557,60.6448619 98.9332581,65.2527543 C84.1926823,69.9381274 43,88.7518393 43,143.577421 Z" id="Shape"></path>
    </g>
  </g>

</svg>