<?xml version="1.0" standalone="no"?>
<!DOCTYPE svg PUBLIC "-//W3C//DTD SVG 20010904//EN"
 "http://www.w3.org/TR/2001/REC-SVG-20010904/DTD/svg10.dtd">
<svg version="1.0" xmlns="http://www.w3.org/2000/svg"
 width="260.000000pt" height="260.000000pt" viewBox="0 0 260.000000 260.000000"
 preserveAspectRatio="xMidYMid meet">
<metadata>
Created by potrace 1.11, written by Peter Selinger 2001-2013
</metadata>
<g transform="translate(0.000000,260.000000) scale(0.100000,-0.100000)"
fill="#000000" stroke="none">
<path d="M1375 2484 c-116 -19 -131 -22 -228 -55 -87 -29 -220 -89 -285 -129
l-33 -21 36 -67 c56 -103 50 -100 146 -48 46 25 134 62 194 82 101 34 121 37
240 41 143 3 214 -11 298 -60 154 -91 225 -287 162 -451 -12 -33 -37 -86 -54
-116 -33 -58 -39 -90 -18 -90 239 -5 242 -5 290 -28 59 -28 133 -103 170 -170
49 -89 50 -207 3 -331 -48 -128 -215 -319 -371 -423 -49 -33 -91 -61 -93 -63
-12 -11 88 -175 106 -175 16 0 156 91 216 138 257 209 412 466 422 703 9 236
-85 374 -344 503 -40 20 -75 43 -78 50 -3 7 1 48 9 91 34 178 -12 316 -149
452 -74 72 -189 133 -300 158 -93 21 -238 25 -339 9z"/>
<path d="M610 2150 c-370 -267 -579 -635 -579 -1019 1 -274 103 -522 304 -740
136 -146 357 -270 532 -296 21 -3 50 -8 63 -10 37 -8 197 -8 265 -1 91 10 230
45 325 81 113 43 234 101 249 119 10 12 -2 40 -65 148 -42 73 -85 148 -95 166
-11 17 -28 48 -39 68 -19 32 -49 84 -222 384 -30 52 -166 289 -303 525 -328
570 -355 615 -368 615 -7 0 -37 -19 -67 -40z m97 -572 c33 -47 133 -207 133
-214 0 -2 15 -27 34 -56 48 -77 311 -538 362 -638 53 -103 55 -124 12 -146
-55 -29 -161 -51 -249 -53 -250 -5 -467 139 -579 384 -109 238 -61 499 125
687 91 92 118 98 162 36z"/>
<path d="M1404 2035 c-75 -20 -163 -62 -170 -80 -4 -9 3 -35 15 -58 90 -175
192 -337 212 -337 47 0 178 124 215 203 46 101 12 222 -77 268 -45 22 -120 24
-195 4z"/>
<path d="M1817 1359 c-82 -13 -197 -63 -197 -87 0 -36 200 -379 227 -389 18
-7 105 53 165 114 87 90 107 164 69 249 -43 94 -133 133 -264 113z"/>
</g>
</svg>
